<?xml version="1.0" encoding="UTF-8"?>
<svg id="Layer_1" xmlns="http://www.w3.org/2000/svg" version="1.1" viewBox="0 0 512 512">
  <!-- Generator: Adobe Illustrator 29.1.0, SVG Export Plug-In . SVG Version: 2.1.0 Build 142)  -->
  <defs>
    <style>
      .st0 {
        fill: #cb0e33;
      }

      .st1 {
        fill: #fee980;
      }

      .st2 {
        fill: #3a0018;
      }

      .st3 {
        fill: #fecb66;
      }
    </style>
  </defs>
  <path class="st1" d="M256.2,0v512h-21c-8.8-2.3-18-2.7-27-4.5C108.1,487.9,27.5,409.7,6,309.8L.3,275c.7-13-1-27.1,0-40C9.9,113.1,113.5,9.8,235.2,0h21Z"/>
  <path class="st3" d="M276.1,0l28.2,4.3c101.5,19.5,184,101.9,203.4,203.5l4.3,28.2v41c-2.1,8.9-2.6,18.2-4.3,27.2-19.6,101.9-101.6,183.8-203.4,203.5l-28.2,4.3h-20v-61c61.1.4,115.5-27.7,152.9-75,16-20.2,24.2-35.5,32-60,6.8-21.4,10-37.3,10-60,0-23.2-2.9-38.2-10-60-8.1-24.9-15.9-39.5-32-60-2.7-3.4-5-7.2-8-10.5-36-40.3-90.5-65.4-144.9-64.5V0h20Z"/>
  <path class="st0" d="M441,196c7.1,21.8,10,36.8,10,60h-194.9v-60h184.9Z"/>
  <path class="st2" d="M451,256c0,22.7-3.2,38.6-10,60h-184.9v-60h194.9,0Z"/>
  <path class="st0" d="M441,316c-7.8,24.5-16,39.8-32,60h-152.9v-60h184.9Z"/>
  <path class="st2" d="M409.1,136c16.1,20.5,23.9,35.1,32,60h-184.9v-60h152.9Z"/>
  <path class="st0" d="M409.1,136h-152.9V61c54.4-1,108.9,24.2,144.9,64.5,2.9,3.3,5.3,7.1,8,10.5Z"/>
  <path class="st2" d="M409.1,376c-37.4,47.3-91.8,75.4-152.9,75v-75h152.9Z"/>
</svg>