<?xml version="1.0" encoding="UTF-8"?>
<svg xmlns="http://www.w3.org/2000/svg" viewBox="0 0 646.86 697.62">
  <defs>
    <style>
      .cls-1 {
        isolation: isolate;
      }

      .cls-2 {
        fill: #ffd2ac;
        mix-blend-mode: multiply;
      }

      .cls-3 {
        fill: #ffe2c5;
      }

      .cls-4 {
        fill: #cc0e33;
      }
    </style>
  </defs>
  <g class="cls-1">
    <g id="Layer_1" data-name="Layer 1">
      <g>
        <path class="cls-4" d="M327.55,0c3.29,2.73,6.01,4.34,6.74,8.96.91,5.73.78,36.84-.95,41.21-3.26,8.25-16.51,8.21-19.77,0-1.73-4.35-1.86-35.5-.95-41.21.73-4.62,3.46-6.23,6.74-8.96h8.19Z"/>
        <path class="cls-4" d="M100.88,453.34c-12.56-1.63-28.57.96-36.87-10.24-7.42-10.02-4.07-17.32-.25-27.54,12.07-32.35,30.66-64.76,43.62-97.02-12.59-158.12,101.3-253.81,255.92-226.62,173.22,30.46,239.81,184.52,170.67,341.87-24.14,54.95-60.33,85.13-70.85,149-5.97,36.22.91,71.98-3.1,106.14-.45,3.83-1.62,6.58-4.97,8.69l-253.65-.02c-2.64-1.82-5.12-3.78-5.03-7.26-2.52-37.78,3.59-80.35.12-117.56-.59-6.35-1.79-11.72-9.01-12.84-20.54-3.18-44.27,5.35-63.86-5.78-35.37-20.09-19.16-67.51-22.76-100.82ZM216.94,678.66h220.53c1.5,0,1.96-3.33,2.12-4.71,3.62-30.83-2.34-62.21,3.09-95.23,11.75-71.44,55.17-106.42,78.8-169.73,46.18-123.73,5.54-244.17-124-287.07-149.49-49.51-285.73,33.63-268.52,197.68l-48.57,110.52c8.45,2.82,36.45,1.14,40.26,9.59,3.56,24.24-2.4,53.34.82,77.01,4.77,35.05,52.13,17.59,74.37,23.95,8.71,2.49,21.1,14.79,21.1,23.96v114.02Z"/>
        <path class="cls-4" d="M7.63,313c5.08-1.13,36.66-1.13,41.74,0,8.43,1.87,10.39,14.05,3.08,18.88-5.87,3.88-36.89,3.68-43.99,1.55-11.55-3.47-10.74-18.23-.83-20.43Z"/>
        <path class="cls-4" d="M597.53,313c5.08-1.13,36.66-1.13,41.74,0,8.43,1.87,10.39,14.05,3.08,18.88-5.87,3.88-36.89,3.68-43.99,1.55-11.55-3.47-10.74-18.23-.83-20.43Z"/>
        <path class="cls-4" d="M592.13,155.89c10.39-.75,17.03,9.86,9.91,18.23-2.05,2.42-31.99,19.59-35.51,20.55-9.71,2.65-18.27-8.74-11.54-17.09,5.53-6.86,29.15-15.53,37.14-21.7Z"/>
        <path class="cls-4" d="M45.28,158.81c2.32-1.96,7.23-3.02,10.23-2.27,3.21.81,28.2,15.06,31.62,17.65,11.89,8.98,7.68,22.36-7.12,20.82-7.92-6.2-51.64-21.91-34.73-36.2Z"/>
        <path class="cls-4" d="M165.94,41.33c2.56-.22,7.33,1.98,9.26,3.82,1.5,1.42,18.3,30.27,19.13,32.75,4.29,12.81-8.58,19.81-17.1,13.01-1.48-1.18-18.17-29.62-19.31-32.57-2.71-7.01-.51-16.28,8.02-17.01Z"/>
        <path class="cls-4" d="M476,42.62c10.18-2.3,16.06,3.61,13.76,13.76-.49,2.16-18.4,32.81-20.17,34.46-8.6,7.96-20.18-.21-17.5-12.03.42-1.85,17.1-30.52,19.04-32.86,1.51-1.82,2.44-2.78,4.87-3.33Z"/>
        <path class="cls-2" d="M216.94,678.66v-114.02c0-9.17-12.39-21.47-21.1-23.96-22.23-6.36-69.6,11.1-74.37-23.95-3.22-23.67,2.73-52.77-.82-77.01-3.81-8.45-31.81-6.78-40.26-9.59l48.57-110.52c-17.21-164.05,119.03-247.19,268.52-197.68,129.53,42.9,170.18,163.34,124,287.07-23.63,63.31-67.05,98.29-78.8,169.73-5.43,33.02.53,64.4-3.09,95.23-.16,1.37-.62,4.71-2.12,4.71h-220.53ZM427.23,654.08c-1.25-53.23-.42-104.84,23.41-153.43,8.34-17,20.51-31.56,30.08-47.75,72.72-123.05,47.2-273.85-102.35-314.6-137.81-37.55-248.32,41.17-234.09,187.06-14.24,33.62-30.85,66.43-43.4,100.67,8.19.65,32.77.09,36.15,8.23,3.41,22.55-2.16,49.5.83,71.54,4.21,30.93,51.54,16.12,72.33,20.53,7.38,1.56,20.4,13.1,20.4,20.56v107.19h196.63Z"/>
        <path class="cls-3" d="M427.23,654.08h-196.63v-107.19c0-7.46-13.02-19-20.4-20.56-20.79-4.41-68.12,10.4-72.33-20.53-3-22.04,2.57-48.99-.83-71.54-3.38-8.14-27.96-7.58-36.15-8.23,12.54-34.24,29.16-67.05,43.4-100.67-14.23-145.89,96.28-224.61,234.09-187.06,149.56,40.75,175.07,191.55,102.35,314.6-9.57,16.19-21.75,30.75-30.08,47.75-23.82,48.59-24.66,100.19-23.41,153.43ZM301.24,177.84c-13.81,2.48-9.26,13.38-9.14,22.15.72,50.66,3.54,101.07,5.46,151.57.79,20.66-1.36,49.83,1.67,69.34.82,5.27,3.04,10.39,8.8,11.68,5.24,1.17,41.98,1.17,47.22,0,13.48-3.02,8.67-29.33,9.11-40.05,2.18-53.12,5.32-106.52,6.94-159.65.45-14.93-.42-29.9.98-44.8-1.13-6.39-5.13-9.56-11.41-10.44-10.22-1.43-49.84-1.56-59.64.2ZM324.46,460.5c-41.37,7.09-32.72,74.81,13.01,67.62,43.34-6.82,34.65-75.79-13.01-67.62Z"/>
        <path class="cls-4" d="M301.24,177.84c9.8-1.76,49.42-1.63,59.64-.2,6.27.88,10.27,4.05,11.41,10.44-1.41,14.9-.53,29.87-.98,44.8-1.62,53.14-4.76,106.53-6.94,159.65-.44,10.72,4.37,37.04-9.11,40.05-5.24,1.17-41.98,1.17-47.22,0-5.76-1.29-7.98-6.41-8.8-11.68-3.03-19.5-.88-48.68-1.67-69.34-1.92-50.5-4.74-100.91-5.46-151.57-.12-8.77-4.67-19.67,9.14-22.15ZM350.76,199.37h-38.23l8.19,213.02h21.85l8.19-213.02Z"/>
        <path class="cls-4" d="M324.46,460.5c47.65-8.17,56.34,60.8,13.01,67.62-45.72,7.2-54.38-60.53-13.01-67.62ZM329.96,480.91c-20.37,2.5-10.73,34.36,7.52,25.37,13.98-6.89,6.67-27.11-7.52-25.37Z"/>
        <polygon class="cls-3" points="350.76 199.37 342.57 412.39 320.72 412.39 312.53 199.37 350.76 199.37"/>
        <path class="cls-3" d="M329.96,480.91c14.18-1.74,21.49,18.48,7.52,25.37-18.24,8.99-27.89-22.86-7.52-25.37Z"/>
      </g>
    </g>
  </g>
</svg>