<?xml version="1.0" encoding="UTF-8"?>
<svg id="Layer_1" data-name="Layer 1" xmlns="http://www.w3.org/2000/svg" viewBox="0 0 718.51 718.05">
  <defs>
    <style>
      .cls-1 {
        fill: #f4894f;
      }

      .cls-2 {
        fill: #f48b52;
      }

      .cls-3 {
        fill: #f48a50;
      }

      .cls-4 {
        fill: #f48c54;
      }

      .cls-5 {
        fill: #f48950;
      }

      .cls-6 {
        fill: #fbd3b9;
      }
    </style>
  </defs>
  <path class="cls-6" d="M385.85,0l54.69,9.1c256.29,59.98,365.49,368.96,197.63,576.44C450.6,817.37,75.77,729.94,9.41,440.42c-3.94-17.18-5.54-34.69-9.1-51.91.73-17.06-.99-34.93,0-51.9C10.72,158.71,158.93,10.41,336.79,0h49.07ZM483.99,298.05c1.09-3.52,0-19.93,0-25.25,0-8.44-6.48-27.99-10.01-36.27-32.27-75.59-129.25-98.68-192.53-45.74-29.02,24.28-47.76,65.86-42.74,103.72,44.41-9.51,90.4,5.27,122.81,36.28,8.51-4.26,15.78-11.15,24.31-15.94,22.8-12.82,50.22-19,76.41-17.49,3.91.23,20.36,5.16,21.75.68ZM321.36,401.14c1.77-12.97,8.16-26.63,14.84-37.76,2.4-4.01,16.14-21.27,15.79-23.05-27.15-29.51-72.75-42.32-111.83-33.03,6.63,42.64,39.73,81.52,81.19,93.85ZM479.66,312.88c-27.95-6.53-57.4-2.88-82.89,10.11-4.4,2.24-21.44,12.44-23.65,15.64-3.29,4.77,6.97,15.18,9.65,19.99,7.26,13.03,14.04,27.45,15.7,42.51,39.8-9.31,74.83-48.03,81.19-88.26ZM318.57,413.78c-39.44-12.45-70.81-43.8-85.17-82.43-1.5-4.03-4.08-16.94-5.25-18.6-2.74-3.88-17.63,4.79-21.28,6.79-133.35,72.92-38.16,278.65,104.66,222.52,5.08-2,34.41-17.8,35.16-21.24.99-4.54-5.84-10.13-8.23-14.07-17.19-28.3-25.54-59.82-19.89-92.98ZM401.42,413.9c1.82,29.49-3.67,57.52-18.64,83.04-2.44,4.16-16.59,21.3-16.6,22.71,0,2.92,14.53,13.69,17.83,15.87,62.65,41.33,148.96,17.61,180.13-50.69,30.27-66.33-3.06-144.89-71.73-167.85-10.1,45.23-46.19,84.71-91,96.92ZM363.4,350.65c-1.86-1.29-5.79,3.66-6.94,4.94-11.7,12.98-20.03,32.84-23.88,49.74,17.66,3.53,36.51,4.61,54.08.05-1.94-20.26-12.62-37.99-23.27-54.74ZM383.05,419.38c-18.16,2.19-35.25,1.18-53.27-1.42,2.13,5.29-5.55,20.4,3.15,19.41,14.12-6.32,31.67-8.96,45.6-14.81,1.74-.73,4.14-.76,4.52-3.18ZM388.65,432c-6.74,3.01-55.65,15.89-57.28,18.41s1.27,9.32,1.22,12.44l54.69-17.52c2.81-2.34.86-9.79,1.37-13.34ZM384.44,460.05l-47.66,14.03c1.93,7.05,1.81,13.82,9.87,11.98,3.82-.87,30.98-9.34,32.65-10.48s5.9-14.79,5.15-15.52ZM370.43,492.32c-1.41-1.09-20.26,3.97-20.99,6.43,6.49,20.94,14.65,4.17,20.99-6.43Z"/>
  <path class="cls-1" d="M401.42,413.9c44.81-12.22,80.9-51.69,91-96.92,68.66,22.96,102,101.52,71.73,167.85-31.17,68.3-117.48,92.02-180.13,50.69-3.3-2.18-17.84-12.95-17.83-15.87,0-1.41,14.16-18.56,16.6-22.71,14.98-25.52,20.46-53.55,18.64-83.04Z"/>
  <path class="cls-1" d="M318.57,413.78c-5.66,33.15,2.7,64.68,19.89,92.98,2.39,3.94,9.23,9.52,8.23,14.07-.75,3.44-30.08,19.24-35.16,21.24-142.82,56.12-238.02-149.61-104.66-222.52,3.65-2,18.54-10.67,21.28-6.79,1.17,1.66,3.75,14.56,5.25,18.6,14.36,38.63,45.73,69.98,85.17,82.43Z"/>
  <path class="cls-1" d="M483.99,298.05c-1.39,4.47-17.84-.46-21.75-.68-26.19-1.52-53.61,4.67-76.41,17.49-8.53,4.79-15.8,11.68-24.31,15.94-32.4-31.01-78.4-45.79-122.81-36.28-5.02-37.86,13.72-79.44,42.74-103.72,63.28-52.94,160.25-29.85,192.53,45.74,3.53,8.27,10.01,27.83,10.01,36.27,0,5.32,1.09,21.73,0,25.25Z"/>
  <path class="cls-5" d="M321.36,401.14c-41.46-12.33-74.56-51.21-81.19-93.85,39.08-9.29,84.67,3.52,111.83,33.03.35,1.78-13.39,19.05-15.79,23.05-6.68,11.13-13.07,24.79-14.84,37.76Z"/>
  <path class="cls-5" d="M479.66,312.88c-6.36,40.23-41.39,78.95-81.19,88.26-1.66-15.06-8.44-29.48-15.7-42.51-2.68-4.81-12.94-15.22-9.65-19.99,2.21-3.2,19.25-13.4,23.65-15.64,25.49-12.99,54.94-16.65,82.89-10.11Z"/>
  <path class="cls-3" d="M363.4,350.65c10.64,16.74,21.33,34.48,23.27,54.74-17.58,4.56-36.43,3.48-54.08-.05,3.85-16.9,12.18-36.76,23.88-49.74,1.15-1.28,5.08-6.23,6.94-4.94Z"/>
  <path class="cls-2" d="M388.65,432c-.51,3.55,1.44,11-1.37,13.34l-54.69,17.52c.05-3.13-2.83-9.94-1.22-12.44s50.54-15.4,57.28-18.41Z"/>
  <path class="cls-2" d="M384.44,460.05c.75.73-3.45,14.36-5.15,15.52s-28.83,9.61-32.65,10.48c-8.06,1.84-7.94-4.92-9.87-11.98l47.66-14.03Z"/>
  <path class="cls-2" d="M383.05,419.38c-.39,2.41-2.78,2.45-4.52,3.18-13.93,5.85-31.48,8.49-45.6,14.81-8.69.99-1.01-14.11-3.15-19.41,18.02,2.6,35.11,3.61,53.27,1.42Z"/>
  <path class="cls-4" d="M370.43,492.32c-6.34,10.6-14.5,27.36-20.99,6.43.74-2.46,19.58-7.51,20.99-6.43Z"/>
</svg>