<?xml version="1.0" encoding="UTF-8"?>
<svg xmlns="http://www.w3.org/2000/svg" viewBox="0 0 575.17 765.54">
  <defs>
    <style>
      .cls-1 {
        isolation: isolate;
      }

      .cls-2 {
        fill: #ffe2c5;
      }

      .cls-3 {
        fill: #cc0e33;
      }

      .cls-4 {
        fill: #fff;
        mix-blend-mode: soft-light;
      }

      .cls-5 {
        fill: #ffedde;
        mix-blend-mode: multiply;
      }
    </style>
  </defs>
  <g class="cls-1">
    <g id="Layer_1" data-name="Layer 1">
      <g>
        <path class="cls-2" d="M.23,97.2S64.4,0,187.09,0c256.68,0,386.89,97.2,386.89,97.2,0,0,11.32,352.85-35.86,473.21-47.18,120.36-281.21,206.29-375.58,193.96-70.15-9.16-115.13-75.95-143.44-156.65C-3.53,543.19.23,97.2.23,97.2Z"/>
        <path class="cls-5" d="M145.56,530.97c-73.21.8-117.12-66.41-143.37-150.91,2.38,102.51,7.23,200.04,16.92,227.66,28.31,80.7,73.29,147.48,143.44,156.65,94.37,12.33,328.39-73.61,375.58-193.96,47.18-120.36,35.86-473.21,35.86-473.21,0,0-112.3,430.31-428.42,433.77Z"/>
        <path class="cls-4" d="M.23,97.2s-.64,76.28.2,170.31c38.76,25.7,85.67,40.76,136.23,40.76,133.17,0,241.13-104.31,241.13-232.99,0-19.72-2.56-38.86-7.33-57.15C318.99,7.41,257.87,0,187.09,0,64.4,0,.23,97.2.23,97.2Z"/>
        <path class="cls-5" d="M108.13,422.13s10.7,8.41,45.93,9.24c35.23.83,72.98-13.64,72.98-13.64,0,0-47.81,45.92-78.01,46.55-30.2.63-40.89-42.15-40.89-42.15Z"/>
        <path class="cls-3" d="M275.32,318.96s28.78-92.81,96.53-92.64c60.58.15,96.53,32.63,96.53,32.63,0,0-125.59,14.72-193.07,60.01Z"/>
        <path class="cls-3" d="M102.94,335.81s-15.02-92.81-50.38-92.64c-31.61.15-50.38,32.63-50.38,32.63,0,0,65.54,14.72,100.76,60.01Z"/>
        <ellipse class="cls-4" cx="353.63" cy="357.97" rx="72.55" ry="31.14" transform="translate(-105.45 151.95) rotate(-21.18)"/>
        <path class="cls-4" d="M54.36,349.12c-22.68-13.44-44.12-12.27-47.89,2.62-3.77,14.89,11.55,37.86,34.23,51.31,22.68,13.44,44.12,12.27,47.89-2.62,3.77-14.89-11.55-37.86-34.23-51.31Z"/>
        <ellipse class="cls-4" cx="150.1" cy="657.99" rx="55.86" ry="60.46"/>
        <path class="cls-4" d="M173.87,413.32c0,7.64-11.41,13.84-25.48,13.84s-25.48-6.2-25.48-13.84,11.41-13.84,25.48-13.84,25.48,6.2,25.48,13.84Z"/>
        <path class="cls-3" d="M380.94,425.27c0,9.09-7.37,16.46-16.46,16.46s-16.46-7.37-16.46-16.46,7.37-68.03,16.46-68.03,16.46,58.94,16.46,68.03Z"/>
        <path class="cls-3" d="M186.34,592.13c-49.73-3.5-95.34,12.85-125.71,41.1.01-.15.02-.3.03-.45,5.75-81.62,65.13-143.93,132.63-139.18,67.49,4.76,117.55,74.78,111.79,156.4-.01.15-.03.3-.04.45-26.11-32.23-68.97-54.82-118.7-58.33Z"/>
      </g>
    </g>
  </g>
</svg>