<?xml version="1.0" encoding="UTF-8"?>
<svg xmlns="http://www.w3.org/2000/svg" viewBox="0 0 750 500">
  <defs>
    <style>
      .cls-1 {
        fill: #ffd1a3;
      }

      .cls-1, .cls-2, .cls-3, .cls-4, .cls-5 {
        mix-blend-mode: multiply;
      }

      .cls-6, .cls-7 {
        fill: #385d93;
      }

      .cls-8 {
        fill: #d8b288;
      }

      .cls-9 {
        fill: #febaa3;
      }

      .cls-7 {
        opacity: .2;
      }

      .cls-10 {
        fill: #feae93;
      }

      .cls-2, .cls-11 {
        fill: #ffe6ca;
      }

      .cls-12, .cls-13 {
        fill: #fff;
      }

      .cls-14 {
        fill: #ffc757;
      }

      .cls-3 {
        fill: #d9a4a4;
      }

      .cls-15 {
        fill: #091326;
      }

      .cls-16 {
        fill: #29477c;
      }

      .cls-17 {
        fill: #fff4e9;
      }

      .cls-18 {
        fill: #d83e3a;
      }

      .cls-19 {
        isolation: isolate;
      }

      .cls-20 {
        fill: #0d1b35;
      }

      .cls-21 {
        fill: #ffb31a;
      }

      .cls-22 {
        fill: #1a0f24;
      }

      .cls-23 {
        fill: #ad2727;
      }

      .cls-24 {
        fill: #1a3263;
      }

      .cls-25 {
        fill: #ffc82e;
      }

      .cls-26 {
        fill: #ffebd6;
      }

      .cls-13 {
        mix-blend-mode: overlay;
        opacity: .3;
      }

      .cls-27 {
        fill: #081121;
      }

      .cls-28 {
        fill: #ff931d;
      }

      .cls-29 {
        fill: #f7d4aa;
      }

      .cls-30 {
        fill: #d15009;
      }

      .cls-31 {
        fill: #ebac97;
      }

      .cls-5 {
        fill: #f5e4d2;
      }

      .cls-32 {
        fill: #c16b5b;
      }
    </style>
  </defs>
  <g class="cls-19">
    <g id="OBJECTS">
      <path class="cls-26" d="M93.91,440.98h576.38c13.59-41.83,20.05-85.51,21.05-129.51s-12.56-90.45-45.58-119.25c-22.28-19.43-51.11-29.16-76.41-44.37-36.69-22.06-65.32-55.23-98.71-82.1-33.39-26.87-75.78-48.14-117.65-39.62-39.96,8.13-69.86,41.2-93.69,74.54-23.83,33.33-45.8,69.95-80.34,91.77-36.47,23.03-84.81,28.06-112.75,61.05-21.7,25.62-25.33,62.96-17.55,95.72s27.83,63.04,45.25,91.78Z"/>
      <ellipse class="cls-5" cx="377.63" cy="451.19" rx="318.31" ry="20.48"/>
      <g>
        <g>
          <path class="cls-21" d="M439.6,335.62c1.98-3.71,4.41-7.32,7.88-9.68,3.48-2.36,8.2-3.26,11.94-1.35,2.82,1.44,4.75,4.28,5.65,7.31.9,3.04.87,6.27.57,9.42-1.36,14.02-8.28,27.43-18.93,36.66-1.82,1.57-3.77,3.05-6.03,3.87-2.37.87-6.48,1.43-7.5-1.41-1.2-3.32-1.21-7.63-1.34-11.12-.26-7.42.72-14.89,2.89-21.99,1.24-4.05,2.86-7.98,4.86-11.72Z"/>
          <path class="cls-21" d="M409.6,340.99c-2.07-4.86-4.53-9.59-7.17-14.32-1.94-3.48-3.9-6.98-6.54-9.97-2.63-2.99-6.02-5.46-9.91-6.29-3.89-.83-8.31.2-10.93,3.2-2.22,2.54-2.91,6.08-3.02,9.45-.22,6.99,1.69,13.95,4.86,20.18,3.17,6.23,7.56,11.78,12.42,16.81,3.42,3.54,7.19,6.91,11.75,8.77,3.43,1.4,11.93,2.95,14.35-1.14,1.8-3.03-.44-9.32-1.16-12.52-1.09-4.87-2.7-9.6-4.66-14.18Z"/>
          <path class="cls-30" d="M425.89,395.06c-5.64-16.86-13.22-33.06-22.61-48.16-2.67-4.3-5.5-8.5-8.45-12.61-.89-1.23-2.95-.05-2.06,1.2,13.21,18.4,23.63,38.72,30.82,60.2.48,1.45,2.78.83,2.3-.63Z"/>
          <path class="cls-25" d="M425.02,307.01c1.5-2.28,3.37-4.61,6.02-5.25,2.87-.69,5.92.9,7.72,3.24,1.8,2.34,2.58,5.3,3.14,8.2,2.88,14.98.8,30.8-5.45,44.72-1.1,2.44-2.34,4.87-4.18,6.82-1.84,1.95-4.34,3.4-7.02,3.45-9.31.18-10.15-12.79-10.7-19.33-.79-9.32.4-18.8,3.46-27.63,1.74-5,4.08-9.8,6.99-14.22Z"/>
          <path class="cls-28" d="M384.34,360.46c-2.01-3.43-3.45-7.32-3.31-11.29.14-3.97,2.06-8.02,5.51-10,3.63-2.08,8.34-1.55,11.97.52,3.63,2.08,6.31,5.49,8.44,9.09,3.77,6.36,6.08,13.58,6.72,20.95.18,2.04.39,6.8-1.91,7.92-1.64.8-5.44-.75-7.08-1.25-5.45-1.67-10.49-4.66-14.58-8.63-2.23-2.17-4.19-4.63-5.76-7.32Z"/>
          <path class="cls-30" d="M417.59,392.71c-3.02-13.15-9.36-25.38-18.33-35.47-1.02-1.15-2.7.54-1.68,1.68,8.69,9.79,14.78,21.66,17.71,34.41.34,1.49,2.64.86,2.3-.63Z"/>
          <path class="cls-30" d="M448.99,342.44c-7.75,17.66-13.02,36.31-15.6,55.42-.2,1.5,2.09,2.15,2.3.63,2.54-18.89,7.69-37.4,15.36-54.85.61-1.39-1.44-2.6-2.06-1.2Z"/>
          <path class="cls-30" d="M430.56,323.45c-8.98,22.94-9.11,47.91-9.14,72.19,0,1.53,2.38,1.53,2.38,0,.02-24.08.14-48.79,9.05-71.55.56-1.43-1.74-2.05-2.3-.63Z"/>
        </g>
        <path class="cls-23" d="M407.96,389.85c-3.17,6.37-5.08,14.62-5.08,23.64,0,20.18,9.57,36.54,21.38,36.54s21.38-16.36,21.38-36.54c0-9.02-1.91-17.27-5.08-23.64h-32.59Z"/>
        <path class="cls-3" d="M440.55,389.85h-13.81c3.17,6.37,5.08,14.62,5.08,23.64,0,16.05-6.05,29.67-14.47,34.58,2.17,1.27,4.49,1.96,6.91,1.96,11.81,0,21.38-16.36,21.38-36.54,0-9.02-1.91-17.27-5.08-23.64Z"/>
      </g>
      <g>
        <rect class="cls-8" x="468.91" y="83.57" width="86.44" height="131.84"/>
        <rect class="cls-11" x="473.13" y="87.49" width="78.01" height="124"/>
        <rect class="cls-17" x="485.86" y="102.11" width="52.54" height="94.78"/>
        <circle class="cls-18" cx="512.13" cy="130.11" r="19.39" transform="translate(249.97 588.89) rotate(-74.51)"/>
        <circle class="cls-23" cx="512.13" cy="162.94" r="19.39" transform="translate(80.65 483.34) rotate(-54.24)"/>
      </g>
      <g>
        <g>
          <rect class="cls-8" x="572.23" y="51.84" width="107.25" height="163.57"/>
          <rect class="cls-11" x="577.46" y="56.7" width="96.79" height="153.85"/>
          <rect class="cls-17" x="593.26" y="74.83" width="65.19" height="117.59"/>
        </g>
        <path class="cls-25" d="M636.9,142.64c-.69.15-1.39.29-2.08.43,4.24-7.09,8.78-13.99,13.64-20.7,4.98-6.88-1.53-16.1-9.04-16.55,1.58-1.68,3.16-3.37,4.74-5.05,6.62-7.05,1.85-18.51-7.8-18.82-7.7-.25-15.4-.5-23.1-.75-13.66-.44-14.15,19.97-1.52,21.9-1.77,1.89-3.55,3.78-5.32,5.67-6.5,6.93-1.94,18.73,7.8,18.82,1.4.01,2.8.03,4.2.04-5.1,8.19-9.78,16.63-14.02,25.34-3.64,7.46.77,15.06,7.96,16.25-5.93,12.71,12.99,23.83,19.08,11.04,3.3-6.94,7.65-12.95,13.96-17.47,10.03-7.2,4.18-22.85-8.5-20.15Z"/>
      </g>
      <g>
        <g>
          <path class="cls-16" d="M525.34,289.27h41.06c4.92,0,8.61,4.51,7.64,9.33l-14.34,71.29h-56.96l14.96-74.36c.73-3.64,3.93-6.26,7.64-6.26Z"/>
          <path class="cls-6" d="M516.69,289.27h41.06c4.92,0,8.61,4.51,7.64,9.33l-14.34,71.29h-56.96l14.96-74.36c.73-3.64,3.93-6.26,7.64-6.26Z"/>
          <path class="cls-16" d="M527.05,440.98h-60.49c-4.5,0-8.64-2.06-11.35-5.66-2.71-3.6-3.55-8.14-2.31-12.47l12.24-42.67c1.74-6.06,7.36-10.29,13.66-10.29h48.25v4.08h-48.25c-4.49,0-8.5,3.02-9.74,7.34l-12.24,42.67c-.88,3.09-.28,6.33,1.65,8.89,1.93,2.56,4.88,4.03,8.09,4.03h60.49v4.08Z"/>
          <path class="cls-16" d="M559.7,359.25h-89.29c-2.96,0-5.36,2.4-5.36,5.36h0c0,2.96,2.4,5.36,5.36,5.36h89.29v-10.72Z"/>
          <path class="cls-6" d="M559.7,440.98h-60.49c-4.5,0-8.64-2.06-11.35-5.66s-3.55-8.14-2.31-12.47l12.24-42.67c1.74-6.06,7.36-10.29,13.66-10.29h48.25v4.08h-48.25c-4.49,0-8.5,3.02-9.74,7.34l-12.24,42.67c-.88,3.09-.28,6.33,1.65,8.89,1.93,2.56,4.88,4.03,8.09,4.03h60.49v4.08Z"/>
        </g>
        <g>
          <path class="cls-22" d="M507.19,210.84c-.44.85-1.06,1.67-1.41,2.47-.68,1.53-1.11,3.2-.93,4.89.19,1.83,1.06,3.55,1.06,5.39,0,2.23-1.27,4.26-2.68,5.99-1.42,1.73-3.04,3.34-3.98,5.36-1.62,3.51-.73,8.01,2.1,10.64,2.78,2.59,6.94,3.22,10.7,2.66,3.76-.56,7.27-2.16,10.81-3.54,3.54-1.38,7.28-2.59,11.07-2.3,3.23.25,6.28,1.56,9.45,2.26,3.17.69,6.8.65,9.27-1.47,2.3-1.97,3-5.36,2.35-8.32-.65-2.96-2.46-5.53-4.51-7.76-1.68-1.84-3.54-3.5-5.25-5.32-1.43-1.53-2.2-3.97-2.51-6.03-.51-3.43.56-6.88.79-10.34.49-7.19-5.06-12.56-11.2-15.24-3.17-1.38-6.68-2.19-10.15-1.95-1.16.08-2.31.31-3.4.72-1.02.38-1.92,1.15-3.01,1.3-.62.08-1.25-.07-1.87-.14-2.59-.29-5.23,1.03-6.78,3.12-1.56,2.09-2.08,4.84-1.71,7.42.25,1.7.86,3.31,1.37,4.95.34,1.1,1.03,2.56.91,3.74-.05.51-.24,1.01-.5,1.5Z"/>
          <g>
            <path class="cls-31" d="M498.81,314.84s-50.68,14.89-55.77,30.29c-4.65,14.05.43,83.83.43,83.83,0,0,5.71,1.05,11.44,0,0,0,8.85-69.71,10.94-71.44,2.08-1.74,52.92-12.16,59.4-18.18,6.48-6.02,4.28-24.24,4.28-24.24l-30.71-.26Z"/>
            <g>
              <path class="cls-9" d="M449.13,441.19s20.67.72,27.63-2.22l1.24,2.22s8.56.12,8.58,0c.03-.1.59-4.13-.3-8.51-.26-1.24-.62-2.52-1.17-3.73h-11.44s-4.89,2-10,3.79c-3.34,1.18-6.78,2.27-8.99,2.66-5.61.98-5.54,5.79-5.54,5.79Z"/>
              <path class="cls-20" d="M449.13,441.19s20.67.72,27.63-2.22l1.24,2.22s8.56.12,8.58,0c.03-.1.59-4.13-.3-8.51-5.07,1.01-14.28,2.22-22.61.06-3.34,1.18-6.78,2.27-8.99,2.66-5.61.98-5.54,5.79-5.54,5.79Z"/>
            </g>
            <g>
              <path class="cls-31" d="M418.93,441.19s20.67.72,27.63-2.22l1.24,2.22s8.56.12,8.58,0c.03-.1.59-4.13-.3-8.51-.26-1.24-.62-2.52-1.17-3.73h-11.44s-4.89,2-10,3.79c-3.34,1.18-6.78,2.27-8.99,2.66-5.61.98-5.54,5.79-5.54,5.79Z"/>
              <path class="cls-20" d="M418.93,441.19s20.67.72,27.63-2.22l1.24,2.22s8.56.12,8.58,0c.03-.1.59-4.13-.3-8.51-5.07,1.01-14.28,2.22-22.61.06-3.34,1.18-6.78,2.27-8.99,2.66-5.61.98-5.54,5.79-5.54,5.79Z"/>
            </g>
            <path class="cls-9" d="M551.93,314.84s6.79,17.69-3.7,32.7c-14.46,20.69-70.38,7.95-73.2,9.85-2.81,1.91,10.08,71.56,10.08,71.56,0,0-4.99,1.63-11.44,0,0,0-29.63-81.22-23.15-90.1,8.38-11.49,61.79-23.56,61.79-23.56l39.62-.46Z"/>
          </g>
          <g>
            <path class="cls-9" d="M509.55,241.25c-4.69,1.42-8.28,38.35-9.9,41.48-1.62,3.13-21.53,39.59-21.53,39.59l10.3,2.97s24.5-35.05,26.08-40.31c1.59-5.26-4.95-43.73-4.95-43.73Z"/>
            <path class="cls-25" d="M509.55,241.25c-7.67,1.66-12.04,22.53-11.75,23.11.29.58,11.52,6.12,17.48,4.87,5.96-1.25-5.73-27.98-5.73-27.98Z"/>
            <path class="cls-23" d="M477.31,360.32s-1.27-24.68-21.19-28.73c0,0,15.51-12.39,43.03-17.41h52.68s12.97,28.07-10.19,40.57c-23.15,12.5-64.33,5.57-64.33,5.57Z"/>
            <path class="cls-25" d="M497.42,314.17c17.94,5.62,55.64,2.92,55.64,2.92-.52-9.03-6.54-39.7-6.54-39.7l-.09-6.7-.1-6.81-.31-21.51-12.05-4.38-12.05-.37-12.37,3.62c-4.32,7.39-4.59,16.02-3.67,23.13.31,2.45.78,4.72,1.27,6.69,1.12,4.52,2.38,7.48,2.38,7.48l-12.11,35.63Z"/>
            <g>
              <rect class="cls-24" x="481.52" y="319.72" width="58.33" height="2.36" transform="translate(1019.07 645.44) rotate(-179.59)"/>
              <polygon class="cls-16" points="448.93 321.63 514.83 322.11 509.52 279.2 443.63 278.73 448.93 321.63"/>
              <circle class="cls-12" cx="479.22" cy="300.93" r="5.57" transform="translate(-73.85 420.61) rotate(-44.34)"/>
            </g>
            <g>
              <g>
                <path class="cls-9" d="M514.5,306.21l2.67,8.3s-14.01,7.08-14.73,5.88c-.72-1.2,3.87-3.45,3.87-3.45,0,0-10.12,4.55-10.86,2.97-.75-1.57,9.8-5.5,9.8-5.5,0,0-12.79,4.82-13.47,3.13-.69-1.69,12.21-6.17,12.21-6.17,0,0-10.38,2.47-10.85.71-.64-2.42,21.38-5.86,21.38-5.86Z"/>
                <path class="cls-9" d="M514.5,306.21s-9.68-4.63-11.28-3.27c-1.61,1.36,5.28,5.82,5.28,5.82l6.01-2.54Z"/>
              </g>
              <path class="cls-9" d="M546.02,242.37c8.21,2.67,15.8,42.9,11.4,49.27s-40.25,22.87-40.25,22.87l-2.67-8.3s29.26-19.89,29.49-21.17c.23-1.27-1.55-33.34-1.55-33.34l3.58-9.33Z"/>
              <path class="cls-25" d="M546.02,242.37c6.15,2.12,12.74,17.56,12.69,19.56-.05,2-14.64,9.77-18.33,6.51-3.69-3.26.39-17.63.39-17.63l5.25-8.44Z"/>
            </g>
            <g class="cls-4">
              <path class="cls-25" d="M543.2,267.52c-.46-1.54-1.07-3.01-1.75-4.45.02-.24-.07-.48-.29-.61-1.04-2.08-2.28-4.05-3.76-5.86-.55-.68-1.51.29-.96.96,1.06,1.3,1.98,2.71,2.8,4.17-.83-.24-1.69-.4-2.56-.46-.36-.02-.7.33-.68.68.02.39.3.65.68.68.66.04,1.23.13,1.92.31.56.15,1.07.35,1.56.56.68,1.42,1.27,2.87,1.72,4.38.25.84,1.56.48,1.31-.36Z"/>
              <path class="cls-25" d="M506.62,253.28c.06-.87-1.3-.87-1.36,0-.35,5.37.21,10.77,1.64,15.95.23.84,1.54.49,1.31-.36-1.4-5.08-1.93-10.34-1.59-15.59Z"/>
            </g>
          </g>
          <g>
            <g>
              <path class="cls-9" d="M508.57,217.47c.65,4.68,2.41,7.53,4.81,9.56,1.47,1.25,2.8,2.09,3.94,2.88,2.88,1.99,4.6,3.58,4.6,10.18,1.95,4.9,9.45,5.57,11.86,0-.11-8.72,2-15.93,3.21-19.34.37-1.05.66-1.74.78-2,.04-.09.05-.13.05-.13,0,0-.03-1.41-.13-3.47-.01-.25-.03-.52-.04-.78-.27-4.84-.89-12.43-2.35-15.11-5.36-9.81-24.19-6.47-25.66,1.34-1.39,7.44-1.66,12.84-1.07,16.89Z"/>
              <path class="cls-22" d="M507.86,207.45c2.3-.25,4.42-1.43,6.12-3,1.7-1.56,3.02-3.5,4.21-5.48.68,2.53,2.12,4.72,4.38,6.05,2.25,1.33,5.04,1.75,7.58,1.12.54,2.12,1.77,4.18,3.48,5.54,1.71,1.36,3.87,2.14,6.06,2.19,1.77-6.3-.36-13.64-5.23-18.01-4.87-4.37-12.28-5.68-18.36-3.25-1.85.74-3.6,1.83-4.89,3.35-2.5,2.97-3.36,7.59-3.35,11.47Z"/>
              <g>
                <path class="cls-22" d="M515.26,209.65c-1.52-1.06-3.49-1-4.92.24-.27.23-.31.7-.11,1,.21.31.6.36.87.13.59-.51,1.33-.74,2.06-.68.37.03.73.13,1.07.29.3.15.59.41.93.22.08-.05.15-.11.2-.2.19-.28.17-.8-.11-1Z"/>
                <path class="cls-22" d="M519.97,209.65c1.74-1.06,4-1,5.64.24.31.23.36.7.13,1-.24.31-.69.36-1,.13-.67-.51-1.53-.73-2.37-.67-.42.03-.84.13-1.23.29-.34.14-.68.4-1.07.21-.09-.05-.17-.11-.23-.2-.21-.28-.2-.8.13-1Z"/>
                <path class="cls-32" d="M517.45,221.25c-.66,0-1.34-.14-2.01-.49-.31-.16-.43-.54-.27-.85.16-.31.54-.43.85-.26,1.6.84,3.38-.02,3.89-.72.21-.28.6-.34.88-.14.28.21.34.6.14.88-.6.82-1.97,1.59-3.49,1.59Z"/>
                <path class="cls-32" d="M515.95,217.65c-.07,0-.13-.05-.15-.11-.3-1.03.05-1.38.4-1.49.35-.11.77-.02,1.25.27.07.05.1.14.05.22-.05.07-.14.1-.22.05-.4-.24-.73-.33-.99-.24-.31.1-.38.47-.19,1.1.02.08-.02.17-.11.2-.01,0-.03,0-.04,0Z"/>
                <g>
                  <circle cx="522.52" cy="214.21" r="1.34"/>
                  <circle class="cls-12" cx="522.16" cy="213.66" r=".43"/>
                </g>
                <g>
                  <path d="M511.47,214.21c0,.74.6,1.34,1.34,1.34s1.34-.6,1.34-1.34-.6-1.34-1.34-1.34-1.34.6-1.34,1.34Z"/>
                  <path class="cls-12" d="M512.06,213.72c0,.24.19.43.43.43s.43-.19.43-.43-.19-.43-.43-.43-.43.19-.43.43Z"/>
                </g>
              </g>
              <g>
                <path class="cls-9" d="M541.96,218.95c-1.61,1.93-4.16,2.45-5.69,1.17-1.53-1.28-1.46-3.88.16-5.81,1.61-1.93,4.16-2.45,5.69-1.17,1.53,1.28,1.46,3.88-.16,5.81Z"/>
                <path class="cls-32" d="M541.06,214.09c-.69-.36-1.6-.35-2.45.05-.42.2-.73.43-.94.73-.28.39-.35.88-.2,1.28.14.36.42.59.67.79.18.15.35.29.45.45.15.26.11.62-.09.84-.2.22-.55.29-.82.17-.16-.07-.35,0-.42.15-.07.16,0,.35.15.42.17.08.36.12.55.12.37,0,.75-.15,1.01-.43.38-.42.45-1.09.17-1.58-.15-.27-.39-.46-.6-.63-.21-.17-.4-.33-.48-.53-.08-.2-.03-.47.13-.69.06-.09.15-.17.24-.24.31,0,.71.09.9.31.22.24.33.6.27.92-.03.17.09.33.26.36.02,0,.03,0,.05,0,.15,0,.29-.11.31-.26.09-.52-.08-1.06-.43-1.45-.13-.14-.3-.24-.47-.32.52-.14,1.04-.11,1.44.1.49.26.87.93.61,1.48-.07.16,0,.35.15.42.16.07.35,0,.42-.15.37-.8-.04-1.86-.89-2.31Z"/>
              </g>
            </g>
            <g>
              <path class="cls-21" d="M533.52,237.25l-5.71,6.35s2.63,3.52,6.54,1.78c3.91-1.74.55-5.53.55-5.53,0,0,1-1.74-1.38-2.6Z"/>
              <path class="cls-21" d="M522.1,237.25l5.71,6.35s-2.63,3.52-6.54,1.78c-3.91-1.74-.55-5.53-.55-5.53,0,0-1-1.74,1.38-2.6Z"/>
            </g>
          </g>
        </g>
      </g>
      <g>
        <g>
          <path class="cls-16" d="M634.48,289.27h41.06c4.92,0,8.61,4.51,7.64,9.33l-14.34,71.29h-56.96l14.96-74.36c.73-3.64,3.93-6.26,7.64-6.26Z"/>
          <path class="cls-6" d="M625.84,289.27h41.06c4.92,0,8.61,4.51,7.64,9.33l-14.34,71.29h-56.96l14.96-74.36c.73-3.64,3.93-6.26,7.64-6.26Z"/>
          <path class="cls-16" d="M636.19,440.98h-60.49c-4.5,0-8.64-2.06-11.35-5.66-2.71-3.6-3.55-8.14-2.31-12.47l12.24-42.67c1.74-6.06,7.36-10.29,13.66-10.29h48.25v4.08h-48.25c-4.49,0-8.5,3.02-9.74,7.34l-12.24,42.67c-.88,3.09-.28,6.33,1.65,8.89,1.93,2.56,4.88,4.03,8.09,4.03h60.49v4.08Z"/>
          <path class="cls-16" d="M668.84,359.25h-89.29c-2.96,0-5.36,2.4-5.36,5.36h0c0,2.96,2.4,5.36,5.36,5.36h89.29v-10.72Z"/>
          <path class="cls-6" d="M668.84,440.98h-60.49c-4.5,0-8.64-2.06-11.35-5.66-2.71-3.6-3.55-8.14-2.31-12.47l12.24-42.67c1.74-6.06,7.36-10.29,13.66-10.29h48.25v4.08h-48.25c-4.49,0-8.5,3.02-9.74,7.34l-12.24,42.67c-.88,3.09-.28,6.33,1.65,8.89,1.93,2.56,4.88,4.03,8.09,4.03h60.49v4.08Z"/>
        </g>
        <g>
          <path class="cls-29" d="M621.54,238.75c-10.6,4.59-13.18,43.29-14.69,47.34-.95,2.56-27.29,40.62-27.29,40.62l9.72,5.75s31.46-34.73,33.08-39.47c1.62-4.75-.82-54.23-.82-54.23Z"/>
          <g>
            <path class="cls-24" d="M536.89,441.19s20.67.72,27.63-2.22l1.24,2.22s8.56.12,8.58,0c.03-.1.59-4.13-.3-8.51-.26-1.24-.62-2.52-1.17-3.73h-11.44s-4.89,2-10,3.79c-3.34,1.18-6.78,2.27-8.99,2.66-5.61.98-5.54,5.79-5.54,5.79Z"/>
            <path class="cls-27" d="M607.63,314.84s-50.68,14.89-55.77,30.29c-4.65,14.05,9.57,83.83,9.57,83.83,0,0,5.71,1.05,11.44,0,0,0-.29-69.71,1.79-71.44,2.08-1.74,52.92-12.16,59.4-18.18,6.48-6.02,4.28-24.24,4.28-24.24l-30.71-.26Z"/>
            <path class="cls-24" d="M557.95,441.19s20.67.72,27.63-2.22l1.24,2.22s8.56.12,8.58,0c.03-.1.59-4.13-.3-8.51-.26-1.24-.62-2.52-1.17-3.73h-11.44s-4.89,2-10,3.79c-3.34,1.18-6.78,2.27-8.99,2.66-5.61.98-5.54,5.79-5.54,5.79Z"/>
            <path class="cls-20" d="M660.58,316.86s4.77,19.13-4.4,31.85c-11.06,15.35-64.72,8.25-67.99,11.13-2.55,2.25,5.73,69.12,5.73,69.12,0,0-4.99,1.63-11.44,0,0,0-29.63-81.22-23.15-90.1,8.38-11.49,61.79-23.56,61.79-23.56l39.46,1.55Z"/>
          </g>
          <g>
            <path class="cls-29" d="M607.32,314.93c17.67,6.41,53.48,1.9,53.48,1.9-.11-9.04-2.87-75.32-2.87-75.32l-11.84-4.91-12.03-.91-12.52,3.06-14.22,76.18Z"/>
            <polygon class="cls-16" points="639.44 241.91 635.79 243.3 637.93 245.43 631.02 289.27 635.87 296.55 641.96 289.27 640.03 245.46 642.69 243.45 639.44 241.91"/>
            <g>
              <path class="cls-30" d="M621.11,295.88h-3.17v-7.33c0-1.55-1.27-2.82-2.82-2.82h-18.2c-1.55,0-2.82,1.27-2.82,2.82v7.33h-3.17v-7.33c0-3.3,2.69-5.99,5.99-5.99h18.2c3.3,0,5.99,2.69,5.99,5.99v7.33Z"/>
              <rect class="cls-30" x="581.35" y="292.78" width="56.9" height="35.05" rx=".94" ry=".94"/>
              <rect class="cls-21" x="577.58" y="292.78" width="56.9" height="35.05" rx="1.34" ry="1.34"/>
              <path class="cls-28" d="M578.92,292.78h54.22c.74,0,1.34.6,1.34,1.34v10.4c0,3.72-3.02,6.73-6.73,6.73h-43.43c-3.72,0-6.73-3.02-6.73-6.73v-10.4c0-.74.6-1.34,1.34-1.34Z"/>
              <rect class="cls-30" x="600.84" y="308.04" width="10.36" height="4.53"/>
            </g>
            <path class="cls-9" d="M616.19,282.03s-5.21-3.46-7.59-3.32c-2.37.15-9.19,5.2-8.97,6.84.22,1.64,2.34,7.15,4.43,6.63,2.08-.52,10.68-2.39,10.68-2.39l1.45-7.77Z"/>
            <path class="cls-29" d="M657.93,241.51c7.04,3.31,15.98,48.81,7.39,55.5-6.88,5.36-51.02-4.43-51.02-4.43-1.85-4.11,1.47-11.58,1.47-11.58,0,0,38.44,3.28,39.22,2.77.78-.5-.35-28.01-.35-28.01l3.29-14.25Z"/>
            <g>
              <path class="cls-1" d="M659.38,283.27c-1.15-.07-2.31-.15-3.46-.22.43-2.97.4-5.97-.12-8.93-.15-.86-1.46-.5-1.31.36.49,2.8.51,5.67.08,8.48-12.01-.78-24.01-1.55-36.02-2.33-.87-.06-.87,1.3,0,1.36,13.61.88,27.22,1.76,40.82,2.64.87.06.87-1.3,0-1.36Z"/>
              <path class="cls-1" d="M617.27,256.68c-1.17,7.11-2.35,14.22-3.52,21.33-.14.86,1.21.96,1.36.1,1.17-7.11,2.35-14.22,3.52-21.33.14-.86-1.21-.96-1.36-.1Z"/>
            </g>
          </g>
          <g>
            <path class="cls-22" d="M656.75,201.58c0-1.55-.12-3.14-.79-4.54-.67-1.4-1.95-2.58-3.49-2.76-.1-1.57-.99-3.01-2.16-4.06s-2.6-1.76-4.04-2.39c-4.96-2.17-10.27-3.54-15.66-4.04-1.88-.17-3.79-.24-5.62.2-1.83.44-3.59,1.45-4.6,3.04-1.01,1.59-1.13,3.8,0,5.32-2.42,1.83-3.73,4.91-3.71,7.94.02,3.03,1.26,5.98,3.16,8.34,1.89,2.36,4.4,4.18,7.08,5.59,5,2.63,10.7,3.86,16.34,3.65,2.69-.1,5.37-.55,7.96-1.28,2.17-.61,2.98-3.36,3.71-5.26,1.19-3.1,1.82-6.41,1.84-9.73Z"/>
            <g>
              <path class="cls-9" d="M620.84,215.4c.65,4.68,2.41,7.53,4.81,9.56,1.47,1.25,2.8,2.1,3.94,2.88,2.88,1.99,4.6,3.58,4.6,10.19,1.95,4.91,9.46,5.57,11.87,0-.11-8.73,2-15.94,3.21-19.35.37-1.05.66-1.74.78-2,.04-.09.05-.13.05-.13,0,0-.03-1.41-.13-3.47-.01-.25-.03-.52-.04-.78-.27-4.84-.89-12.44-2.35-15.12-5.36-9.81-24.2-6.47-25.68,1.34-1.39,7.44-1.66,12.85-1.07,16.9Z"/>
              <path class="cls-22" d="M648.48,196.74c-3.46-4-8.91-5.83-14.2-6-3.71-.12-7.59.55-10.55,2.79-1.77,1.34-3.14,3.21-3.88,5.3l.82.14c2.96,1.22,6.26,1.45,9.44,1.1,3.18-.35,6.28-1.24,9.34-2.18-.31.71-.2,1.59.28,2.19.48.61,1.32.91,2.08.76-.38,2.68.32,5.51,1.92,7.7,1.6,2.19,4.08,3.71,6.76,4.16,2.54-5.08,1.71-11.66-2.01-15.95Z"/>
              <g>
                <path class="cls-22" d="M627.54,207.58c-1.52-1.06-3.49-1-4.92.24-.27.23-.31.7-.11,1,.21.31.6.36.87.13.59-.51,1.34-.74,2.07-.68.37.03.73.13,1.07.3.3.15.59.41.93.22.08-.05.15-.11.2-.2.19-.28.17-.8-.11-1Z"/>
                <path class="cls-22" d="M632.25,207.58c1.74-1.06,4-1,5.64.24.31.23.36.7.13,1-.24.31-.69.36-1,.13-.67-.51-1.53-.73-2.37-.67-.42.03-.84.13-1.23.29-.35.14-.68.4-1.07.21-.09-.05-.17-.11-.23-.2-.21-.28-.2-.8.13-1Z"/>
                <path class="cls-32" d="M629.72,219.18c-.66,0-1.35-.14-2.01-.49-.31-.16-.43-.54-.27-.85.16-.31.54-.43.85-.27,1.6.84,3.38-.02,3.89-.72.21-.28.6-.34.88-.14.28.21.34.6.14.88-.6.82-1.97,1.59-3.49,1.59Z"/>
                <path class="cls-32" d="M628.23,215.58c-.07,0-.13-.05-.15-.11-.3-1.03.05-1.38.4-1.49.35-.11.77-.02,1.25.27.07.05.1.14.05.22-.05.07-.14.1-.22.05-.4-.24-.73-.33-.99-.24-.31.1-.38.47-.19,1.1.02.08-.02.17-.11.2-.01,0-.03,0-.04,0Z"/>
                <g>
                  <path d="M633.46,212.14c0,.74.6,1.34,1.34,1.34s1.34-.6,1.34-1.34-.6-1.34-1.34-1.34-1.34.6-1.34,1.34Z"/>
                  <path class="cls-12" d="M634.01,211.59c0,.24.19.43.43.43s.43-.19.43-.43-.19-.43-.43-.43-.43.19-.43.43Z"/>
                </g>
                <g>
                  <path d="M623.74,212.14c0,.74.6,1.34,1.34,1.34s1.34-.6,1.34-1.34-.6-1.34-1.34-1.34-1.34.6-1.34,1.34Z"/>
                  <path class="cls-12" d="M624.33,211.65c0,.24.19.43.43.43s.43-.19.43-.43-.19-.43-.43-.43-.43.19-.43.43Z"/>
                </g>
              </g>
              <g>
                <path class="cls-9" d="M654.25,216.88c-1.62,1.93-4.17,2.45-5.69,1.17-1.53-1.28-1.46-3.88.16-5.81,1.62-1.93,4.17-2.45,5.69-1.17,1.53,1.28,1.46,3.88-.16,5.81Z"/>
                <path class="cls-32" d="M653.35,212.02c-.69-.36-1.6-.35-2.45.05-.42.2-.73.43-.94.73-.28.39-.35.88-.2,1.28.14.36.42.59.67.79.18.15.35.29.45.45.15.26.11.62-.09.84-.2.22-.55.29-.82.17-.16-.07-.35,0-.42.15-.07.16,0,.35.15.42.17.08.36.12.55.12.37,0,.75-.15,1.01-.43.38-.42.45-1.09.17-1.58-.15-.27-.39-.46-.6-.63-.21-.17-.41-.33-.48-.53-.08-.2-.03-.47.13-.69.06-.09.15-.17.24-.24.31,0,.71.09.9.31.22.24.33.6.28.93-.03.17.09.33.26.36.02,0,.03,0,.05,0,.15,0,.29-.11.31-.26.09-.52-.08-1.06-.43-1.45-.13-.14-.3-.24-.47-.32.52-.14,1.04-.11,1.44.1.49.26.87.93.61,1.48-.07.16,0,.35.15.42.16.07.35,0,.42-.15.37-.8-.04-1.86-.89-2.31Z"/>
              </g>
            </g>
          </g>
          <g>
            <polygon class="cls-11" points="634 234.63 639.44 241.91 632.73 245.05 630.98 236.44 634 234.63"/>
            <polygon class="cls-11" points="639.44 241.91 646.14 234.63 648.81 237.73 645.24 245.34 639.44 241.91"/>
          </g>
        </g>
      </g>
      <g>
        <rect class="cls-6" x="71.92" y="432.83" width="368.09" height="17.03"/>
        <rect class="cls-7" x="77.32" y="185.7" width="357.29" height="247.52"/>
        <polygon class="cls-13" points="393.18 185.7 145.68 433.22 83.53 433.22 331.05 185.7 393.18 185.7"/>
        <polygon class="cls-13" points="434.61 185.7 434.61 194.97 196.36 433.22 165.65 433.22 413.17 185.7 434.61 185.7"/>
      </g>
      <g>
        <g>
          <g>
            <g>
              <path class="cls-20" d="M170.18,363.6h-44.74c-6.35,0-12.26-5.15-13.21-11.5l-10.75-72.55c-.94-6.35,3.45-11.5,9.8-11.5h44.74c6.35,0,12.26,5.15,13.21,11.5l10.75,72.55c.94,6.35-3.45,11.5-9.8,11.5Z"/>
              <path class="cls-24" d="M178.17,363.6h-44.74c-6.35,0-12.26-5.15-13.21-11.5l-10.75-72.55c-.94-6.35,3.45-11.5,9.8-11.5h44.74c6.35,0,12.26,5.15,13.21,11.5l10.75,72.55c.94,6.35-3.45,11.5-9.8,11.5Z"/>
            </g>
            <g>
              <g>
                <path class="cls-16" d="M189.69,384.09h-68.48c0-4.89,3.97-8.86,8.86-8.86h50.76c4.89,0,8.86,3.97,8.86,8.86h0Z"/>
                <path class="cls-24" d="M190.96,385.94h-71.03c-.64,0-1.16-.52-1.16-1.16h0c0-.64.52-1.16,1.16-1.16h71.03c.64,0,1.16.52,1.16,1.16h0c0,.64-.52,1.16-1.16,1.16Z"/>
              </g>
              <path class="cls-24" d="M146.24,384.09h18.41v2.81c0,1.58-1.28,2.86-2.86,2.86h-12.68c-1.58,0-2.86-1.28-2.86-2.86v-2.81h0Z"/>
              <rect class="cls-24" x="151.88" y="387.68" width="7.12" height="64.22"/>
              <path class="cls-24" d="M150.15,444h10.59c1.2,0,2.17.97,2.17,2.17v5.73h-14.93v-5.73c0-1.2.97-2.17,2.17-2.17Z"/>
              <path class="cls-20" d="M180.19,458.65h-49.49c0-4.12,3.34-7.46,7.46-7.46h34.57c4.12,0,7.46,3.34,7.46,7.46h0Z"/>
            </g>
          </g>
          <g>
            <g>
              <g>
                <path class="cls-9" d="M239.15,457.91s-20.67.72-27.63-2.22l-1.24,2.22s-8.56.12-8.58,0c-.03-.1-.59-4.13.3-8.51.26-1.24.62-2.52,1.17-3.73h11.44s4.89,2,10,3.79c3.34,1.18,6.78,2.27,8.99,2.66,5.61.98,5.54,5.79,5.54,5.79Z"/>
                <path class="cls-20" d="M239.15,457.91s-20.67.72-27.63-2.22l-1.24,2.22s-8.56.12-8.58,0c-.03-.1-.59-4.13.3-8.51,5.07,1.01,14.28,2.22,22.61.06,3.34,1.18,6.78,2.27,8.99,2.66,5.61.98,5.54,5.79,5.54,5.79Z"/>
              </g>
              <g>
                <path class="cls-10" d="M194.15,458.57s-15.18-14.03-18.06-21.03l-2.43.69s-6.1-5.87-6.1-6.04c.06-.07,2.19-2.95,5.53-5.34,1.22-.89,2.62-1.71,4.13-2.3l8.12,8.05s2.73,6.45,5.5,11.93c1.24,2.4,2.46,4.62,3.45,6.04,3.3,4.65-.13,8-.13,8Z"/>
                <path class="cls-20" d="M194.15,458.57s-15.18-14.03-18.06-21.03l-2.43.69s-6.1-5.87-6.1-6.04c.06-.07,2.19-2.95,5.53-5.34,2.22,3.76,8.38,12.95,17.75,17.67,1.24,2.4,2.46,4.62,3.45,6.04,3.3,4.65-.13,8-.13,8Z"/>
              </g>
              <path class="cls-10" d="M176.77,330.28s50.26,16.46,55.36,40.3c3.09,14.46-46.8,62.01-46.8,62.01,0,0-6.77-2.42-8.12-8.05,0,0,29.45-47.02,29.19-48.74-.26-1.72-57.86-18.26-57.86-18.26v-27.47l28.23.2Z"/>
              <path class="cls-9" d="M124.97,331.56s-6.79,17.69,3.7,32.7c14.46,20.69,71.74,7.21,74.55,9.11s-.06,72.3-.06,72.3c0,0,4.99,1.63,11.44,0,0,0,18.25-81.22,11.77-90.1-8.38-11.49-61.79-23.56-61.79-23.56l-39.62-.46Z"/>
            </g>
            <g>
              <g>
                <path class="cls-9" d="M234.12,287.68l4,7.75s14.9-4.92,14.56-6.28c-.34-1.35-5.17.3-5.17.3,0,0,10.36-3.96,9.78-5.6-.59-1.64-10.81,3.05-10.81,3.05,0,0,12.44-5.66,11.73-7.33-.71-1.68-12.99,4.29-12.99,4.29,0,0,9.08-5.61,8.16-7.18-1.26-2.16-19.24,11-19.24,11Z"/>
                <path class="cls-9" d="M234.12,287.68s3.55-10.12,5.65-10.3c2.09-.18.4,7.84.4,7.84l-6.04,2.46Z"/>
              </g>
              <path class="cls-21" d="M175.44,260.68c4.92,1.85,19.42,35.45,20.81,35.8s38.12-11.2,38.12-11.2c0,0,4.46,5.8,4.69,10.72,0,0-41.39,15.79-46.67,14.67-6.6-1.39-20.1-23.75-20.1-23.75l3.15-26.25Z"/>
              <path class="cls-20" d="M194.78,377.72s11.69-20.5,27.67-25.71c0,0-17.43-14.47-44.69-21.12h-52.68s-12.97,28.07,10.19,40.57c23.15,12.5,59.51,6.26,59.51,6.26Z"/>
              <path class="cls-21" d="M180.1,331.37c-18.44,3.68-55.96.11-55.96.11,1.47-8.92,10.71-38.78,10.71-38.78l.8-6.65.82-6.76,2.58-21.36,12.45-3.07,12.03.91,11.92,4.91c3.51,7.81,2.87,16.42,1.2,23.38-.57,2.41-1.28,4.61-1.97,6.52-1.59,4.38-3.16,7.18-3.16,7.18l8.6,33.61Z"/>
              <g>
                <path class="cls-9" d="M176.07,309.51l-1.31,8.62s14.96,4.76,15.48,3.46c.52-1.29-4.37-2.79-4.37-2.79,0,0,10.71,2.88,11.2,1.2.49-1.67-10.55-3.87-10.55-3.87,0,0,13.39,2.72,13.8.94.41-1.78-13.03-4.15-13.03-4.15,0,0,10.64.79,10.82-1.03.25-2.49-22.04-2.38-22.04-2.38Z"/>
                <path class="cls-9" d="M176.07,309.51s8.81-6.11,10.62-5.03c1.8,1.08-4.28,6.58-4.28,6.58l-6.33-1.56Z"/>
              </g>
              <path class="cls-21" d="M139.05,257.93c-7.6,2.16-24.5,46.43-18.17,54.7,4.04,5.27,55,6.14,55,6.14,0,0,2.49-7.35,1.91-10.59,0,0-40.94-7.1-40.94-7.67s5.36-20.73,5.36-20.73l-3.17-21.85Z"/>
              <g class="cls-4">
                <path class="cls-14" d="M171.61,306.34c-11.12-2.05-22.29-3.9-33.48-5.57,0-.03.01-.05.01-.08-.09-4.49.79-8.96,2.62-13.07.35-.79-.82-1.49-1.17-.69-1.92,4.29-2.88,8.93-2.8,13.63-1.65-.24-3.29-.49-4.94-.73-.86-.12-1.23,1.19-.36,1.31,13.3,1.89,26.55,4.06,39.76,6.5.86.16,1.22-1.15.36-1.31Z"/>
                <path class="cls-14" d="M176.94,275.59c-.14-.86-1.45-.5-1.31.36.66,3.95.08,8.06-1.63,11.67-.37.79.8,1.48,1.17.69,1.88-3.97,2.49-8.39,1.77-12.72Z"/>
              </g>
            </g>
            <g>
              <path class="cls-22" d="M150.09,241.18c-2.5-.07-4.8-1.58-6.29-3.58-1.49-2-2.27-4.45-2.76-6.9-.72-3.64-.84-7.41-.11-11.04.73-3.63,2.35-7.12,4.83-9.87,4.63-5.13,12.3-7.27,18.92-5.28,3.46-2.12,8.29-1.48,11.53.96,3.25,2.44,5.04,6.52,5.18,10.57.14,4.06-1.23,8.06-3.37,11.51-2.8,4.51-6.92,8.19-11.73,10.46s-10.9,3.33-16.21,3.17Z"/>
              <ellipse class="cls-22" cx="141.35" cy="214.27" rx="12.59" ry="10.01" transform="translate(-112.76 250.57) rotate(-64.72)"/>
              <g>
                <path class="cls-9" d="M176.75,234.95c-.65,4.65-2.4,7.49-4.79,9.51-1.46,1.24-2.78,2.08-3.92,2.86-2.86,1.98-4.58,3.56-4.58,10.13-1.94,4.88-9.4,5.54-11.8,0,.11-8.68-1.99-15.85-3.19-19.24-.37-1.04-.66-1.73-.78-1.99-.04-.09-.05-.13-.05-.13,0,0,.03-1.4.13-3.45.01-.25.03-.51.04-.78.26-4.81.88-12.37,2.33-15.03,5.33-9.76,24.07-6.43,25.53,1.33,1.38,7.4,1.65,12.78,1.07,16.8Z"/>
                <path class="cls-22" d="M176.96,225.82c-1.68-3.74-4.66-6.88-8.31-8.75-1.4,2.48-3.53,4.45-6,5.88-2.47,1.43-5.32,2.18-8.18,2.16.06,2.04-.77,4.02-2.2,5.48-1.42,1.46-3.45,2.31-5.49,2.3-.6-4.24-.82-8.66.32-12.79,1.15-4.13,3.84-8,7.76-9.72,2.11-.93,4.44-1.2,6.74-1.33,2.28-.13,4.58-.12,6.81.38,2.22.5,4.38,1.53,5.93,3.2,1.59,1.72,2.46,4.01,2.82,6.32.36,2.31-.08,4.52-.21,6.86Z"/>
                <g>
                  <path class="cls-22" d="M170.1,227.17c1.51-1.05,3.47-.99,4.89.24.27.23.31.69.11.99-.21.31-.6.36-.87.13-.58-.5-1.33-.73-2.05-.68-.37.03-.73.13-1.07.29-.3.15-.59.41-.93.21-.08-.05-.15-.11-.2-.2-.19-.28-.17-.79.11-.99Z"/>
                  <path class="cls-22" d="M165.41,227.17c-1.73-1.05-3.98-.99-5.61.24-.31.23-.36.69-.13.99.24.31.69.36.99.13.67-.5,1.52-.72,2.35-.67.42.03.84.12,1.22.29.34.14.68.4,1.06.21.09-.05.17-.11.23-.19.21-.28.2-.79-.13-.99Z"/>
                  <path class="cls-32" d="M167.92,238.71c.66,0,1.34-.14,2-.49.31-.16.43-.54.26-.85-.16-.31-.54-.42-.85-.26-1.59.83-3.36-.02-3.87-.72-.2-.28-.6-.34-.88-.14-.28.2-.34.6-.14.88.6.82,1.96,1.58,3.47,1.58Z"/>
                  <path class="cls-32" d="M169.41,235.14c.07,0,.13-.04.15-.11.3-1.02-.05-1.37-.4-1.48-.35-.11-.77-.02-1.24.27-.07.05-.1.14-.05.22.05.07.14.1.22.05.39-.24.72-.32.98-.24.31.1.37.47.19,1.1-.02.08.02.17.11.19.01,0,.03,0,.04,0Z"/>
                  <g>
                    <path d="M164.21,231.71c0,.73-.6,1.33-1.33,1.33s-1.33-.6-1.33-1.33.6-1.33,1.33-1.33,1.33.6,1.33,1.33Z"/>
                    <path class="cls-12" d="M163.66,231.16c0,.24-.19.43-.43.43s-.43-.19-.43-.43.19-.43.43-.43.43.19.43.43Z"/>
                  </g>
                  <g>
                    <path d="M173.87,231.71c0,.73-.6,1.33-1.33,1.33s-1.33-.6-1.33-1.33.6-1.33,1.33-1.33,1.33.6,1.33,1.33Z"/>
                    <path class="cls-12" d="M173.29,231.22c0,.24-.19.43-.43.43s-.43-.19-.43-.43.19-.43.43-.43.43.19.43.43Z"/>
                  </g>
                </g>
                <g>
                  <path class="cls-9" d="M143.54,236.43c1.61,1.92,4.14,2.43,5.66,1.16,1.52-1.28,1.45-3.86-.16-5.78-1.61-1.92-4.14-2.43-5.66-1.16-1.52,1.28-1.45,3.86.16,5.78Z"/>
                  <path class="cls-32" d="M144.44,231.59c.68-.36,1.59-.34,2.44.05.42.19.72.43.93.72.27.39.35.87.2,1.27-.14.36-.42.59-.67.79-.18.15-.35.29-.45.45-.15.26-.11.61.09.83.2.22.55.29.82.16.16-.07.34,0,.42.15.07.16,0,.34-.15.42-.17.08-.36.12-.55.12-.37,0-.75-.15-1-.43-.38-.42-.45-1.08-.16-1.57.15-.26.39-.45.59-.62.21-.17.4-.33.48-.53.08-.2.03-.47-.13-.68-.06-.09-.15-.16-.24-.24-.31,0-.7.09-.9.31-.22.24-.33.6-.27.92.03.17-.09.33-.26.36-.02,0-.03,0-.05,0-.15,0-.28-.11-.31-.26-.09-.52.07-1.06.43-1.45.13-.14.3-.24.47-.32-.52-.14-1.03-.11-1.43.1-.49.26-.86.93-.61,1.48.07.16,0,.34-.15.42-.16.07-.34,0-.42-.15-.37-.8.04-1.85.89-2.29Z"/>
                </g>
              </g>
              <g>
                <path class="cls-12" d="M151.55,254.68l5.55,6.66s-2.93,3.37-6.89,1.42c-3.95-1.95-.25-5.55-.25-5.55,0,0-.93-1.79,1.58-2.52Z"/>
                <path class="cls-12" d="M163.39,255.31l-6.29,6.03s2.53,3.66,6.68,2.14.89-5.49.89-5.49c0,0,1.13-1.68-1.28-2.68Z"/>
              </g>
            </g>
          </g>
        </g>
        <g>
          <path class="cls-8" d="M296.08,458.27h-14.76c0-8.23-9.07-14.91-20.27-14.91s-20.27,6.68-20.27,14.91h-14.75l5.05-120.89.22-5.28h59.51l.22,5.28,5.05,120.89Z"/>
          <rect class="cls-29" x="74.82" y="326.34" width="224.2" height="5.76"/>
          <path class="cls-8" d="M148.53,458.27h-14.76c0-8.23-9.07-14.91-20.27-14.91s-20.27,6.68-20.27,14.91h-14.76l5.05-120.89.22-5.28h59.51l.22,5.28,5.06,120.89Z"/>
          <polygon class="cls-2" points="143.46 337.37 83.51 337.37 83.73 332.1 143.25 332.1 143.46 337.37"/>
          <polygon class="cls-2" points="291.03 337.37 231.08 337.37 231.3 332.1 290.82 332.1 291.03 337.37"/>
        </g>
        <g>
          <rect class="cls-23" x="143.82" y="323.83" width="67.12" height="2.71" transform="translate(354.36 650.6) rotate(-179.93)"/>
          <polygon class="cls-18" points="106.33 326.46 182.16 326.55 175.76 277.22 99.94 277.12 106.33 326.46"/>
          <path class="cls-12" d="M134.64,302.42c0,3.54,2.86,6.41,6.4,6.42,3.54,0,6.41-2.86,6.42-6.4,0-3.54-2.86-6.41-6.4-6.42-3.54,0-6.41,2.86-6.42,6.4Z"/>
        </g>
        <g>
          <path class="cls-25" d="M83.1,274.81c-1.08-1.29-2.52-2.76-4.2-2.79-.89,11.1,1.06,22.42,5.61,32.59l11.33.18c-1.16-10.96-5.66-21.54-12.74-29.98Z"/>
          <path class="cls-21" d="M102.58,266.63c-7.01,11.53-11.34,24.68-12.54,38.13l7.92-.04c5.61-11.72,7.26-25.36,4.62-38.08Z"/>
          <path class="cls-28" d="M96.43,288.9c-1.4-5.37-4.41-10.35-8.08-14.51-1.33,5.1-2.4,10.3-2.52,15.57-.12,5.27.75,10.63,3.14,15.33l7.82.11c1.17-5.42,1.05-11.12-.36-16.49Z"/>
          <path class="cls-21" d="M90.7,291.46c-3.71-3.75-8.77-6.23-13.95-7.24.94,3.82,1.92,7.64,3.47,11.25,1.55,3.61,3.72,7.02,6.73,9.55l10.97.27c-.95-5.19-3.5-10.08-7.21-13.84Z"/>
          <path class="cls-6" d="M91.22,326.34h0c-4.66,0-8.44-3.78-8.44-8.44v-14.99h16.88v14.99c0,4.66-3.78,8.44-8.44,8.44Z"/>
        </g>
      </g>
      <g>
        <circle class="cls-16" cx="202.44" cy="122.74" r="33.75"/>
        <circle class="cls-16" cx="198.22" cy="122.74" r="33.75"/>
        <circle class="cls-6" cx="202.44" cy="122.74" r="29.53" transform="translate(38.14 293.19) rotate(-77.28)"/>
        <rect class="cls-28" x="201.62" y="94.42" width="1.64" height="5.03"/>
        <rect class="cls-28" x="227.43" y="120.23" width="1.64" height="5.03" transform="translate(350.99 -105.5) rotate(90)"/>
        <rect class="cls-28" x="201.62" y="146.04" width="1.64" height="5.03" transform="translate(404.88 297.1) rotate(180)"/>
        <rect class="cls-28" x="175.81" y="120.23" width="1.64" height="5.03" transform="translate(53.89 299.37) rotate(-90)"/>
        <path class="cls-28" d="M202.44,125.75c-.34,0-.68-.11-.97-.33l-14.06-10.96,1.94-2.49,12.87,10.03,15.62-18.45,2.4,2.04-16.6,19.6c-.31.37-.76.56-1.2.56Z"/>
      </g>
      <g>
        <g>
          <g>
            <path class="cls-20" d="M337.51,357.91h44.74c6.35,0,12.26-5.15,13.21-11.5l10.75-72.55c.94-6.35-3.45-11.5-9.8-11.5h-44.74c-6.35,0-12.26,5.15-13.21,11.5l-10.75,72.55c-.94,6.35,3.45,11.5,9.8,11.5Z"/>
            <path class="cls-24" d="M329.52,357.91h44.74c6.35,0,12.26-5.15,13.21-11.5l10.75-72.55c.94-6.35-3.45-11.5-9.8-11.5h-44.74c-6.35,0-12.26,5.15-13.21,11.5l-10.75,72.55c-.94,6.35,3.45,11.5,9.8,11.5Z"/>
          </g>
          <g>
            <g>
              <path class="cls-16" d="M318,369.54h68.48c0,4.89-3.97,8.86-8.86,8.86h-50.76c-4.89,0-8.86-3.97-8.86-8.86h0Z" transform="translate(704.48 747.94) rotate(180)"/>
              <path class="cls-24" d="M316.73,380.25h71.03c.64,0,1.16-.52,1.16-1.16h0c0-.64-.52-1.16-1.16-1.16h-71.03c-.64,0-1.16.52-1.16,1.16h0c0,.64.52,1.16,1.16,1.16Z"/>
            </g>
            <path class="cls-24" d="M345.9,378.4h12.68c1.58,0,2.86,1.28,2.86,2.86v2.81h-18.41v-2.81c0-1.58,1.28-2.86,2.86-2.86Z" transform="translate(704.48 762.47) rotate(180)"/>
            <rect class="cls-24" x="348.68" y="381.99" width="7.12" height="64.22" transform="translate(704.48 828.21) rotate(180)"/>
            <path class="cls-20" d="M327.5,452.96h49.49c0-4.12-3.34-7.46-7.46-7.46h-34.57c-4.12,0-7.46,3.34-7.46,7.46h0Z"/>
            <path class="cls-24" d="M344.77,438.31h14.93v5.73c0,1.2-.97,2.17-2.17,2.17h-10.59c-1.2,0-2.17-.97-2.17-2.17v-5.73h0Z" transform="translate(704.48 884.53) rotate(180)"/>
          </g>
        </g>
        <g>
          <g>
            <g>
              <path class="cls-9" d="M276.47,452.96s20.42-3.25,26.7-7.46l1.64,1.94s8.43-1.52,8.42-1.64c0-.1-.21-4.17-1.92-8.29-.49-1.17-1.09-2.35-1.86-3.44l-11.23,2.19s-4.42,2.9-9.09,5.63c-3.05,1.8-6.22,3.53-8.32,4.33-5.32,2.03-4.33,6.74-4.33,6.74Z"/>
              <path class="cls-20" d="M276.47,452.96s20.42-3.25,26.7-7.46l1.64,1.94s8.43-1.52,8.42-1.64c0-.1-.21-4.17-1.92-8.29-4.78,1.96-13.59,4.91-22.18,4.38-3.05,1.8-6.22,3.53-8.32,4.33-5.32,2.03-4.33,6.74-4.33,6.74Z"/>
            </g>
            <g>
              <path class="cls-9" d="M313.53,452.96s15.18-14.03,18.06-21.03l2.43.69s6.1-5.87,6.1-6.04c-.06-.07-2.19-2.95-5.53-5.34-1.22-.89-2.62-1.71-4.13-2.3l-8.12,8.05s-2.73,6.45-5.5,11.93c-1.24,2.4-2.46,4.62-3.45,6.04-3.3,4.65.13,8,.13,8Z"/>
              <path class="cls-20" d="M313.53,452.96s15.18-14.03,18.06-21.03l2.43.69s6.1-5.87,6.1-6.04c-.06-.07-2.19-2.95-5.53-5.34-2.22,3.76-8.38,12.95-17.75,17.67-1.24,2.4-2.46,4.62-3.45,6.04-3.3,4.65.13,8,.13,8Z"/>
            </g>
            <path class="cls-15" d="M330.91,324.67s-50.26,16.46-55.36,40.3c-3.09,14.46,46.8,62.01,46.8,62.01,0,0,6.77-2.42,8.12-8.05,0,0-29.45-47.02-29.19-48.74.26-1.72,57.86-18.26,57.86-18.26v-27.47l-28.23.2Z"/>
            <path class="cls-20" d="M382.71,325.94s6.79,17.69-3.7,32.7c-14.46,20.69-71.74,7.21-74.55,9.11s4.99,66.31,4.99,66.31c0,0-4.43,1.88-11.23,2.19,0,0-23.39-77.41-16.91-86.3,8.38-11.49,61.79-23.56,61.79-23.56l39.62-.46Z"/>
          </g>
          <g>
            <path class="cls-9" d="M273.56,311.76s-7.25-2.03-11.07-1.94c-3.82.09-15.08,6.24-14.86,10.83h26.26l-.34-8.89Z"/>
            <path class="cls-23" d="M332.25,255.06c-7.67,3.28-12.13,49.73-13.34,49.98-1.22.25-46.71,5.55-46.71,5.55,0,0-1.04,5.82.43,10.03h0s50.97.91,56.87-2.65c5.9-3.56,8.86-33.26,8.86-33.26l-6.11-29.65Z"/>
            <path class="cls-18" d="M327.58,325.75c18.44,3.68,55.96.11,55.96.11-1.47-8.92-10.71-38.78-10.71-38.78l-.8-6.65-.82-6.76-2.58-21.36-12.45-3.07-12.03.91-11.92,4.91c-3.51,7.81-2.87,16.42-1.2,23.38.57,2.41,1.28,4.61,1.97,6.52,1.59,4.38,3.16,7.18,3.16,7.18l-8.6,33.61Z"/>
            <g>
              <path class="cls-9" d="M321.32,311.76s-7.25-2.03-11.07-1.94c-3.82.09-15.08,6.24-14.86,10.83h26.26l-.34-8.89Z"/>
              <path class="cls-23" d="M368.63,252.31c5.98,1.25,25.29,42.85,19.72,56.69-4.9,12.18-66.83,11.61-66.83,11.61-1.58-5.08.29-10.8.29-10.8,0,0,48.73-8.14,49.32-9.32.59-1.17-10.07-49.76-2.51-48.18Z"/>
            </g>
            <g class="cls-4">
              <path class="cls-25" d="M372.56,299.14c-.65.21-1.31.4-1.97.58-.55-1.85-1.22-3.67-1.99-5.44-.09-.21-.4-.26-.58-.15-.22.13-.24.37-.15.58.74,1.71,1.38,3.47,1.91,5.25-2.68.72-5.41,1.26-8.17,1.61-.53.07-.54.91,0,.85,3.8-.47,7.54-1.28,11.18-2.46.52-.17.3-.98-.22-.82Z"/>
              <path class="cls-25" d="M333.45,278.52c0-.54-.84-.54-.85,0-.07,3.94.79,7.84,2.5,11.39.24.49.97.06.73-.43-1.64-3.42-2.45-7.18-2.38-10.96Z"/>
            </g>
          </g>
          <g>
            <ellipse class="cls-22" cx="348.2" cy="219.8" rx="20.08" ry="20.57"/>
            <circle class="cls-22" cx="360.51" cy="204.28" r="10.4"/>
            <g>
              <path class="cls-9" d="M331.22,229.39c.64,4.59,2.37,7.38,4.72,9.37,1.44,1.22,2.74,2.05,3.86,2.82,2.82,1.95,4.51,3.51,4.51,9.98,1.91,4.81,9.27,5.46,11.63,0-.1-8.55,1.96-15.62,3.15-18.96.36-1.03.65-1.7.77-1.96.04-.09.05-.13.05-.13,0,0-.03-1.38-.13-3.41-.01-.25-.03-.51-.04-.77-.26-4.74-.87-12.19-2.3-14.82-5.25-9.62-23.72-6.34-25.16,1.31-1.36,7.29-1.62,12.59-1.05,16.56Z"/>
              <path class="cls-22" d="M330.74,221.18c.51-3.32,2.3-6.42,4.91-8.54.24.89.9,1.56,1.67,2.09.76.53,1.64.85,2.53,1.13,3.69,1.17,7.61,1.64,11.48,1.35.73,1.69,1.57,3.52,2.7,4.98,2.03,2.62,5.28,4.24,8.59,4.3-.12-3.84-.74-7.91-1.33-11.7-.35-2.29-.81-4.62-2.02-6.59-1.29-2.11-3.37-3.67-5.67-4.59-2.29-.92-4.79-1.24-7.27-1.24-2.92,0-5.87.47-8.52,1.69-2.65,1.22-4.99,3.25-6.26,5.87-1.7,3.48-1.13,7.39-.79,11.25Z"/>
              <g>
                <polygon class="cls-23" points="341.61 251.3 344.06 248.33 350.09 255.42 343.67 258.69 341.61 251.3"/>
                <polygon class="cls-23" points="359.27 250.09 356.11 248.33 350.09 255.42 356.52 258.39 359.27 250.09"/>
              </g>
              <g>
                <path class="cls-22" d="M337.79,221.73c-1.49-1.04-3.42-.98-4.82.24-.26.23-.31.68-.11.98.2.3.59.35.85.12.58-.5,1.31-.72,2.02-.67.36.03.72.12,1.05.29.29.15.58.4.91.21.08-.05.15-.11.2-.19.18-.27.17-.78-.11-.98Z"/>
                <path class="cls-22" d="M342.4,221.73c1.71-1.04,3.92-.98,5.53.24.3.23.35.68.12.98-.23.3-.68.35-.98.12-.66-.5-1.5-.71-2.32-.66-.41.03-.82.12-1.21.28-.34.14-.67.39-1.05.2-.09-.05-.17-.11-.23-.19-.21-.27-.2-.78.13-.98Z"/>
                <path class="cls-32" d="M339.93,233.1c-.65,0-1.32-.14-1.97-.48-.3-.16-.42-.53-.26-.84.16-.3.53-.42.84-.26,1.57.82,3.31-.02,3.81-.71.2-.27.59-.34.86-.13s.34.59.13.86c-.59.8-1.93,1.56-3.42,1.56Z"/>
                <path class="cls-32" d="M338.46,229.58c-.07,0-.13-.04-.15-.11-.29-1.01.05-1.35.39-1.46.34-.11.76-.02,1.23.27.07.04.09.14.05.21-.05.07-.14.09-.21.05-.39-.24-.71-.32-.97-.24-.3.1-.37.46-.19,1.08.02.08-.02.17-.11.19-.01,0-.03,0-.04,0Z"/>
                <path d="M334.38,227.07s-.02,0-.03,0c-.17-.01-.3-.16-.29-.34.06-.69.49-2.01,1.74-2.01s1.64,1.27,1.67,1.95c0,.17-.13.32-.3.33-.18.01-.32-.13-.33-.3,0-.06-.08-1.35-1.04-1.35s-1.11,1.42-1.12,1.43c-.01.16-.15.29-.31.29Z"/>
                <path d="M343.51,227.07s-.02,0-.03,0c-.17-.01-.3-.16-.29-.34.06-.69.49-2.01,1.74-2.01s1.64,1.27,1.67,1.95c0,.17-.13.32-.3.33-.18.01-.32-.13-.33-.3,0-.06-.08-1.35-1.04-1.35s-1.11,1.42-1.12,1.43c-.01.16-.15.29-.31.29Z"/>
              </g>
              <g>
                <path class="cls-9" d="M363.96,230.85c-1.58,1.89-4.08,2.4-5.58,1.14-1.5-1.26-1.43-3.81.15-5.69,1.58-1.89,4.08-2.4,5.58-1.14,1.5,1.26,1.43,3.81-.15,5.69Z"/>
                <path class="cls-32" d="M363.08,226.08c-.67-.36-1.57-.34-2.4.05-.41.19-.71.43-.92.71-.27.38-.35.86-.2,1.25.13.35.41.58.66.78.18.15.35.28.44.45.15.25.11.6-.09.82-.2.22-.54.28-.81.16-.16-.07-.34,0-.41.15-.07.15,0,.34.15.41.17.08.35.12.54.12.37,0,.74-.15.99-.42.38-.41.44-1.06.16-1.55-.15-.26-.38-.45-.59-.61-.2-.17-.4-.32-.47-.52-.08-.2-.03-.46.12-.67.06-.09.14-.16.23-.24.31,0,.69.09.89.3.22.24.32.59.27.91-.03.17.09.33.25.36.02,0,.03,0,.05,0,.15,0,.28-.11.3-.26.08-.51-.07-1.04-.42-1.42-.13-.14-.29-.24-.46-.32.51-.14,1.02-.11,1.41.1.48.26.85.92.6,1.45-.07.16,0,.34.15.41.16.07.34,0,.41-.15.36-.78-.04-1.82-.87-2.26Z"/>
              </g>
            </g>
          </g>
        </g>
      </g>
    </g>
  </g>
</svg>